<svg width="0" height="0" class="hidden">
  <symbol xmlns="http://www.w3.org/2000/svg" viewBox="0 0 25 16" id="arrow-left">
    <path d="M.153 7.646l7.812-7.5a.536.536 0 01.737 0 .486.486 0 010 .708L1.778 7.5H24.48A.51.51 0 0125 8a.51.51 0 01-.52.5H1.777l6.924 6.646a.486.486 0 010 .707.53.53 0 01-.369.147.53.53 0 01-.368-.146l-7.812-7.5a.486.486 0 010-.707z"></path>
  </symbol>
  <symbol xmlns="http://www.w3.org/2000/svg" viewBox="0 0 25 16" id="arrow-right">
    <path d="M24.847 7.646l-7.812-7.5a.536.536 0 00-.737 0 .486.486 0 000 .708L23.222 7.5H.52A.51.51 0 000 8c0 .276.233.5.52.5h22.702l-6.924 6.646a.486.486 0 000 .707.53.53 0 00.369.147.53.53 0 00.368-.146l7.813-7.5a.486.486 0 000-.707z"></path>
  </symbol>
  <symbol xmlns="http://www.w3.org/2000/svg" viewBox="0 0 22 22" id="cart">
    <path d="M21.673 7.952a1.52 1.52 0 00-1.195-.574H16.24l-2.298-5.26a.645.645 0 10-1.181.516l2.072 4.744H7.166l2.072-4.744a.645.645 0 00-1.181-.516l-2.298 5.26H1.522c-.469 0-.905.21-1.195.574-.286.358-.39.818-.29 1.262l2.264 9.883a1.51 1.51 0 001.484 1.172h14.43a1.51 1.51 0 001.485-1.172l2.262-9.883a1.484 1.484 0 00-.289-1.262zM18.215 18.98H3.785a.23.23 0 01-.228-.17L1.294 8.926a.197.197 0 01.04-.172.234.234 0 01.188-.087h3.674l-.168.386a.645.645 0 001.18.516l.395-.902h8.794l.394.902a.645.645 0 101.181-.516l-.168-.386h3.674c.102 0 .161.055.187.087a.197.197 0 01.04.172l-2.262 9.882a.23.23 0 01-.228.171z"></path>
    <path d="M7.133 11.46a.645.645 0 00-.645.645v4.726a.645.645 0 101.29 0v-4.726a.645.645 0 00-.645-.645zm3.867 0a.645.645 0 00-.645.645v4.726a.645.645 0 101.29 0v-4.726A.645.645 0 0011 11.46zm3.867 0a.645.645 0 00-.644.645v4.726a.645.645 0 101.289 0v-4.726a.645.645 0 00-.645-.645z"></path>
  </symbol>
  <symbol fill="none" xmlns="http://www.w3.org/2000/svg" viewBox="0 0 11 11" id="chat">
    <path d="M9.821.002H1.18A1.18 1.18 0 000 1.181v6.285a1.18 1.18 0 001.179 1.179h1.394l-.213 1.921a.393.393 0 00.653.335L5.52 8.645h4.301A1.18 1.18 0 0011 7.466V1.181A1.18 1.18 0 009.821.002z" fill="#B2B2B2"></path>
  </symbol>
  <symbol xmlns="http://www.w3.org/2000/svg" viewBox="0 0 20 20" id="chat">
    <path d="M19.021 3.401a1.5 1.5 0 01.078 2.12L9.235 16.135a2 2 0 01-2.9.031l-5.412-5.58a1.5 1.5 0 012.154-2.089l4.678 4.824L16.9 3.48a1.5 1.5 0 012.12-.078z"></path>
  </symbol>
   <symbol xmlns="http://www.w3.org/2000/svg" viewBox="0 0 20 20" id="check">
    <path d="M19.021 3.401a1.5 1.5 0 01.078 2.12L9.235 16.135a2 2 0 01-2.9.031l-5.412-5.58a1.5 1.5 0 012.154-2.089l4.678 4.824L16.9 3.48a1.5 1.5 0 012.12-.078z"></path>
  </symbol>
  <symbol xmlns="http://www.w3.org/2000/svg" viewBox="0 0 10 8" id="checkbox-check">
    <path d="M3.088 8a.42.42 0 01-.312-.14L.13 4.98a.51.51 0 010-.68.416.416 0 01.624 0L3.09 6.841l6.158-6.7a.417.417 0 01.624 0 .51.51 0 010 .679L3.4 7.86a.424.424 0 01-.313.14z"></path>
  </symbol>
  <symbol xmlns="http://www.w3.org/2000/svg" viewBox="0 0 11 6" id="chevron-down">
    <path d="M.294.271a.79.79 0 01.982 0l4.159 3.522a.1.1 0 00.13 0L9.722.271a.79.79 0 01.982 0c.26.22.26.569 0 .789L5.991 5.052a.79.79 0 01-.982 0L.294 1.06a.496.496 0 010-.789z"></path>
  </symbol>
  <symbol xmlns="http://www.w3.org/2000/svg" viewBox="0 0 8 13" id="chevron-right">
    <path d="M5.105 6.353a.25.25 0 000-.353L.435 1.33A.632.632 0 011.33.434L6.624 5.73a.632.632 0 010 .895l-5.295 5.294a.632.632 0 01-.894-.895l4.67-4.67z"></path>
  </symbol>
  <symbol xmlns="http://www.w3.org/2000/svg" viewBox="0 0 6 13" id="number-left">
    <path d="M5.21.53a.929.929 0 010 1.074L1.55 6.313a.15.15 0 000 .184l3.66 4.71a.929.929 0 010 1.073.473.473 0 01-.37.203.473.473 0 01-.37-.203L.32 6.942a.93.93 0 010-1.074L4.47.53a.473.473 0 01.37-.203c.125 0 .26.061.37.203z"></path>
  </symbol>
  <symbol xmlns="http://www.w3.org/2000/svg" viewBox="0 0 6 13" id="number-right">
    <path d="M.321 12.103a.929.929 0 010-1.074l3.66-4.709a.15.15 0 000-.184L.32 1.426a.93.93 0 010-1.073A.473.473 0 01.69.15c.125 0 .26.06.37.203l4.15 5.338a.93.93 0 010 1.074l-4.15 5.338a.473.473 0 01-.37.203.473.473 0 01-.37-.203z"></path>
  </symbol>
  <symbol xmlns="http://www.w3.org/2000/svg" viewBox="0 0 11 6" id="chevron-up">
    <path d="M10.706 5.052a.79.79 0 01-.982 0L5.565 1.53a.1.1 0 00-.13 0L1.278 5.052a.79.79 0 01-.982 0 .496.496 0 010-.788L5.009.27a.79.79 0 01.982 0l4.715 3.993c.26.22.26.568 0 .788z"></path>
  </symbol>
  <symbol xmlns="http://www.w3.org/2000/svg" viewBox="0 0 8 8" id="close">
    <path d="M4.183 3.999L7.962.219A.129.129 0 007.78.038L4 3.817.223.036A.129.129 0 00.039.22l3.78 3.779-3.78 3.779a.129.129 0 10.183.182L4 4.181l3.779 3.78a.129.129 0 00.182-.183l-3.779-3.78z"></path>
  </symbol>
  <symbol xmlns="http://www.w3.org/2000/svg" viewBox="0 0 16 16" id="edit">
    <path d="M14.413.708a2.416 2.416 0 00-3.417 0l-9.579 9.579a.536.536 0 00-.138.236L.02 15.071a.537.537 0 00.661.66l4.548-1.259a.536.536 0 00.236-.138l9.58-9.58a2.419 2.419 0 000-3.416l-.63-.63zM2.587 10.636l7.84-7.84 2.528 2.528-7.84 7.84-2.528-2.528zm-.505 1.013l2.02 2.02-2.794.775.774-2.795zm12.202-7.653l-.57.569-2.528-2.529.57-.569a1.342 1.342 0 011.898 0l.63.63a1.344 1.344 0 010 1.899z"></path>
  </symbol>
  <symbol fill="none" xmlns="http://www.w3.org/2000/svg" viewBox="0 0 70 88" id="empty-cart">
    <path d="M1.459 21.875h67.083v64.167H1.46V21.875z" fill="#fff"></path>
    <path d="M70 87.5H0V20.417h70V87.5zM2.917 84.584h64.166v-61.25H2.918v61.25z" fill="#B35BD2"></path>
    <path d="M51.042 33.542c-.875 0-1.459-.583-1.459-1.458a2.925 2.925 0 00-2.916-2.917 2.925 2.925 0 00-2.917 2.917c0 .875-.583 1.458-1.458 1.458s-1.459-.583-1.459-1.458c0-3.209 2.625-5.834 5.834-5.834 3.208 0 5.833 2.625 5.833 5.834 0 .875-.583 1.458-1.458 1.458zm-23.334 0c-.875 0-1.458-.583-1.458-1.458a2.925 2.925 0 00-2.917-2.917 2.925 2.925 0 00-2.916 2.917c0 .875-.584 1.458-1.459 1.458-.875 0-1.458-.583-1.458-1.458 0-3.209 2.625-5.834 5.833-5.834 3.209 0 5.834 2.625 5.834 5.834 0 .875-.584 1.458-1.459 1.458z" fill="#B35BD2"></path>
    <path d="M2.917 1.458h64.166v20.417H2.918V1.46z" fill="#D9ADE9"></path>
    <path d="M68.542 23.334H1.46V.001h67.083v23.333zM4.376 20.418h61.25v-17.5H4.376v17.5z" fill="#B35BD2"></path>
    <path d="M35.001 53.958a13.07 13.07 0 01-13.125-13.125v-8.75c0-.875.583-1.458 1.458-1.458s1.459.583 1.459 1.458v8.75c0 5.688 4.52 10.209 10.208 10.209 5.687 0 10.208-4.521 10.208-10.209v-8.75c0-.875.583-1.458 1.458-1.458s1.459.583 1.459 1.458v8.75A13.07 13.07 0 0135 53.958zm29.167-30.625c-.438 0-.875-.145-1.167-.583l-6.125-8.167v7.292c0 .875-.583 1.458-1.458 1.458s-1.458-.583-1.458-1.458V10.063c0-.146 0-.292.145-.438 0 0 0-.146.146-.146 0-.145.146-.291.292-.291l8.75-8.75c.583-.584 1.458-.584 2.042 0 .583.583.583 1.458 0 2.041l-7.875 7.875L65.48 21c.438.583.292 1.604-.291 2.042-.438.146-.73.291-1.021.291zm-58.334 0c-.291 0-.583-.145-.875-.291-.583-.438-.729-1.459-.291-2.042l8.02-10.646L4.813 2.48c-.583-.583-.583-1.458 0-2.042.584-.583 1.459-.583 2.042 0l8.75 8.75.292.292s0 .146.146.146v12.25c0 .875-.584 1.458-1.459 1.458-.875 0-1.458-.583-1.458-1.458v-7.292L7.001 22.75c-.292.438-.73.583-1.167.583z" fill="#B35BD2"></path>
  </symbol>
  <symbol viewBox="0 0 16 14" xmlns="http://www.w3.org/2000/svg" id="heart">
    <path d="M7.54464 2.66847L7.99949 3.67138L8.45518 2.66885C9.03733 1.38814 10.3239 0.5 11.8141 0.5C13.846 0.5 15.5 2.15586 15.5 4.18855C15.5 4.62868 15.424 5.05047 15.2848 5.43765C15.0975 5.94935 14.801 6.4097 14.4236 6.78987C14.4232 6.79024 14.4228 6.79062 14.4224 6.79099L8.01075 13.161L1.83384 7.02572L1.81751 7.00951L1.79976 6.99486C1.65454 6.87499 1.51873 6.73954 1.39286 6.59228L1.39279 6.59221C1.09727 6.24663 0.862426 5.84754 0.708608 5.41226C0.573466 5.02809 0.5 4.61823 0.5 4.18855C0.5 2.15337 2.15379 0.5 4.18586 0.5C5.67618 0.5 6.96521 1.39087 7.54464 2.66847ZM7.79998 13.3704C7.80037 13.37 7.80075 13.3696 7.80114 13.3692L7.79998 13.3704Z" stroke="#969696"/>
  </symbol>
   <symbol fill="none" xmlns="http://www.w3.org/2000/svg" viewBox="0 0 59 14" id="info-arrow">
    <path d="M54.918 10.926C46.498 4.774 23.992-7.856 1 10.764" stroke="#B35BD2" stroke-width="2" stroke-miterlimit="10"></path>
    <mask id="a" fill="#fff">
      <path d="M49.736 1.373l-1.295.972 6.153 8.743L44.23 8.336l-.324 1.619L58.48 13.84 49.736 1.373z"></path>
    </mask>
    <path d="M49.736 1.373l-1.295.972 6.153 8.743L44.23 8.336l-.324 1.619L58.48 13.84 49.736 1.373z" fill="#9B77A8"></path>
    <path d="M49.736 1.373L51.374.225l-1.186-1.69-1.652 1.238 1.2 1.6zm-1.295.972l-1.2-1.6-1.552 1.164 1.116 1.587 1.636-1.151zm6.153 8.743l-.514 1.933 5.312 1.411-3.163-4.495-1.635 1.151zM44.23 8.336l.514-1.933-2.058-.547-.417 2.087 1.961.393zm-.324 1.619l-1.96-.393-.37 1.841 1.815.484.515-1.932zM58.48 13.84l-.516 1.932 5.306 1.415-3.153-4.496-1.637 1.149zM48.536-.227l-1.295.972 2.4 3.2 1.295-.972-2.4-3.2zm-1.73 3.723l6.152 8.743 3.271-2.302-6.152-8.743-3.272 2.302zm8.301 5.66L44.745 6.402l-1.027 3.866L54.08 13.02l1.027-3.866zM42.27 7.942l-.324 1.62 3.922.784.324-1.62-3.922-.784zm1.122 3.944l14.572 3.886 1.03-3.865-14.571-3.886-1.031 3.865zm16.725.805L51.374.225l-3.275 2.297 8.743 12.467 3.275-2.297z" fill="#B35BD2" mask="url(#a)"></path>
  </symbol>
  <symbol xmlns="http://www.w3.org/2000/svg" viewBox="0 0 17 17" id="instagram">
    <path d="M12.398 0H4.602A4.607 4.607 0 000 4.602v7.796A4.607 4.607 0 004.602 17h7.796A4.607 4.607 0 0017 12.398V4.602A4.607 4.607 0 0012.398 0zM8.5 13.148A4.654 4.654 0 013.852 8.5 4.654 4.654 0 018.5 3.852 4.654 4.654 0 0113.148 8.5 4.654 4.654 0 018.5 13.148zm4.76-8.2a1.375 1.375 0 01-1.374-1.374 1.375 1.375 0 012.747 0c0 .758-.616 1.374-1.374 1.374z"></path>
    <path d="M8.5 4.848A3.656 3.656 0 004.85 8.5a3.656 3.656 0 003.65 3.652A3.656 3.656 0 0012.152 8.5 3.656 3.656 0 008.5 4.848zm4.76-1.65a.377.377 0 100 .754.377.377 0 000-.754z"></path>
  </symbol>
  <symbol xmlns="http://www.w3.org/2000/svg" viewBox="0 0 229 217.9" id="logo">
    <path d="M10.2 159.8h-.6l.1-4.6h18.7l.1 4.6h-.6c-.2-1.3-.5-2.2-.9-2.8s-.8-.9-1.2-1-1.2-.2-2.2-.2h-3.1v13.6c0 1.5 0 2.5.1 3s.3.8.6 1.1c.3.2.9.3 1.8.3h.9v.6h-9.6v-.6h1c.8 0 1.4-.1 1.7-.3.3-.2.5-.5.6-1 .1-.4.1-1.5.1-3.1v-13.6h-2.9c-1.2 0-2.1.1-2.5.2s-.8.5-1.2 1.1c-.4.6-.7 1.5-.9 2.7zm29.1 7.6H32l-.5 1.2c-.7 1.8-1.1 2.9-1.1 3.5 0 .6.2 1 .6 1.3s.9.4 1.5.4v.6h-5.7v-.6c.9-.1 1.5-.4 1.9-.9s.9-1.5 1.5-3c0-.1.3-.7.7-1.6l5.6-13.4h.5l6.5 15.3.9 2c.2.5.5.8.8 1.1.3.3.8.4 1.5.5v.6h-7.6v-.6c.9 0 1.6-.1 1.9-.2.3-.1.5-.4.5-.8 0-.2-.2-.8-.7-1.9l-1.5-3.5zm-.2-.6l-3.4-8.2-3.4 8.2h6.8zm25.3 8.1l-13.7-18.1v13.4c0 1.1 0 1.8.2 2.2s.4.7.9 1c.5.3 1.3.4 2.3.4v.6H47v-.6c.9-.1 1.6-.2 2.1-.5s.8-.6.9-.9c.1-.3.1-1.1.1-2.2V160c0-1.5-.1-2.5-.2-3s-.4-.8-.7-1-1-.2-2-.2v-.6h5.7l11.4 15.1v-11.6c0-.9-.1-1.4-.3-1.8-.2-.3-.5-.6-1.1-.8s-1.2-.3-2-.3v-.6h7v.6c-.8.1-1.5.2-1.9.5s-.8.5-.9.9c-.1.4-.2.9-.2 1.8v16l-.5-.1zm21.9 0l-13.7-18.1v13.4c0 1.1.1 1.8.2 2.2s.4.7.9 1c.5.3 1.3.4 2.3.4v.6h-7.2v-.6c.9-.1 1.6-.2 2.1-.5s.8-.6.9-.9c.1-.3.1-1.1.1-2.2V160c0-1.5-.1-2.5-.2-3s-.4-.8-.7-1-1-.2-2-.2v-.6h5.7l11.4 15.1v-11.6c0-.9-.1-1.4-.3-1.8s-.5-.6-1.1-.8-1.2-.3-1.9-.3v-.6h7v.6c-.8.1-1.5.2-1.9.5s-.8.5-.9.9c-.1.4-.2.9-.2 1.8v16l-.5-.1zm14.9-8.8l3.8-6.4c.6-1 .9-1.8.9-2.2 0-.4-.2-.8-.5-1.1-.3-.3-.9-.5-1.8-.5v-.6h6.3v.6c-.9.1-1.6.4-2.1 1-.5.5-1.2 1.5-2.1 2.9l-4.3 7.2v2.6c0 1.6.1 2.7.2 3.1s.3.8.6.9c.3.2 1 .3 1.9.3v.6h-8.2v-.6h.3c.8 0 1.4-.1 1.7-.3.3-.2.5-.5.6-1s.1-1.5.1-3.1v-2.4l-4.8-7.9c-1-1.6-1.6-2.6-1.9-2.9-.3-.3-.9-.5-1.7-.5v-.6H98v.6c-1.5 0-2.2.3-2.2 1 0 .3.2.8.7 1.6l4.7 7.7zm26.2-2c2.2.2 3.8.7 4.9 1.6s1.6 2.1 1.6 3.5c0 1.2-.4 2.3-1.1 3.1s-1.6 1.4-2.8 1.7-2.6.4-4.5.4h-7.6v-.6h.7c.8 0 1.4-.1 1.7-.3.3-.2.5-.5.6-1s.1-1.5.1-3.1V160c0-1.6-.1-2.6-.1-3-.1-.5-.3-.8-.6-.9s-.9-.3-1.9-.3h-.4v-.6l3.2-.1 3.6-.1c5.3 0 7.9 1.5 7.9 4.6 0 1.2-.4 2.3-1.4 3-.7.7-2.1 1.3-3.9 1.5zm-3.5-.3h.6c2.1 0 3.4-.3 4.2-1 .8-.6 1.1-1.7 1.1-3.1 0-1-.1-1.8-.4-2.3-.3-.6-.7-1-1.3-1.3-.6-.3-1.6-.4-3-.4H124c-.1 0-.1 8.1-.1 8.1zm0 .7v4.3c0 1.8 0 3 .1 3.5s.2.9.5 1.1.9.4 1.7.4c1.5 0 2.7-.4 3.4-1.2.8-.8 1.1-1.9 1.1-3.5s-.4-2.8-1.3-3.5-2.4-1.1-4.5-1.1h-1zm25.9-9.3h6.4v.6c-.9.1-1.5.2-1.9.6-.4.3-.7.7-.8 1.1-.1.4-.1 1.2-.1 2.4v6.4c0 1.6-.1 2.9-.2 3.7s-.5 1.6-1.1 2.4-1.5 1.4-2.6 1.8c-1.1.5-2.4.7-3.8.7-1.7 0-3.2-.3-4.4-.9-1.2-.6-2-1.3-2.6-2.3-.5-.9-.8-2.2-.8-3.7v-8c0-1.5 0-2.5-.1-3s-.3-.8-.6-.9c-.3-.2-.9-.3-1.9-.3h-.4v-.6h8.8v.6h-.4c-.9 0-1.6.1-1.9.2-.3.2-.5.4-.6.9-.1.4-.1 1.4-.1 3.1v6.1c0 2.1.1 3.6.3 4.5.2.9.7 1.6 1.6 2.3s2.1 1 3.6 1c1.2 0 2.2-.2 3.2-.7s1.7-1 2.1-1.6c.5-.7.8-1.3.9-2s.2-1.8.2-3.3v-6.6c0-1.1-.1-1.9-.2-2.3-.1-.4-.4-.8-.8-1s-1.1-.4-1.9-.5l.1-.7zm25 19.7l-13.6-18.1v13.4c0 1.1.1 1.8.2 2.2s.4.7.9 1c.5.3 1.3.4 2.3.4v.6h-7.2v-.6c.9-.1 1.6-.2 2.1-.5s.8-.6.9-.9c.1-.3.1-1.1.1-2.2V160c0-1.5-.1-2.5-.2-3s-.4-.8-.7-1-1-.2-2-.2v-.6h5.7l11.4 15.1v-11.6c0-.9-.1-1.4-.3-1.8s-.5-.6-1.1-.8c-.5-.2-1.2-.3-1.9-.3v-.6h7v.6c-.8.1-1.5.2-1.9.5-.5.2-.8.5-.9.9-.1.4-.2.9-.2 1.8v16l-.6-.1zm21.9 0L183 156.8v13.4c0 1.1.1 1.8.2 2.2s.4.7.9 1c.5.3 1.3.4 2.3.4v.6h-7.2v-.6c.9-.1 1.6-.2 2.1-.5s.8-.6.9-.9c.1-.3.1-1.1.1-2.2V160c0-1.5-.1-2.5-.2-3s-.4-.8-.7-1-1-.2-2-.2v-.6h5.7l11.4 15.1v-11.6c0-.9-.1-1.4-.3-1.8s-.5-.6-1.1-.8c-.5-.2-1.2-.3-1.9-.3v-.6h7v.6c-.8.1-1.5.2-1.9.5-.5.2-.8.5-.9.9-.1.4-.2.9-.2 1.8v16l-.5-.1zm14.9-8.8l3.8-6.4c.6-1 .9-1.8.9-2.2 0-.4-.2-.8-.5-1.1-.3-.3-.9-.5-1.8-.5v-.6h6.3v.6c-.9.1-1.6.4-2.1 1-.5.5-1.2 1.5-2.1 2.9l-4.3 7.2v2.6c0 1.6.1 2.7.1 3.1.1.4.3.8.6.9.3.2 1 .3 1.9.3v.6h-8.2v-.6h.3c.8 0 1.4-.1 1.7-.3.3-.2.5-.5.6-1s.1-1.5.1-3.1v-2.4l-4.8-7.9c-1-1.6-1.6-2.6-1.9-2.9-.3-.3-.9-.5-1.7-.5v-.6h7.8v.6c-1.5 0-2.2.3-2.2 1 0 .3.2.8.7 1.6l4.8 7.7zM71.9 188.6v10.6c0 1.1-.2 1.8-.8 2.3s-1.3.7-2.4.7h-.3v-1.4h.2c.6 0 1-.1 1.2-.4.2-.2.3-.6.3-1.2v-10.7l1.8.1zm-1.6-2.3c-.2-.2-.3-.5-.3-.8s.1-.6.3-.8.5-.3.8-.3c.3 0 .6.1.8.3s.3.5.3.8-.1.6-.3.8c-.2.2-.5.3-.8.3-.3 0-.5-.1-.8-.3zm15.8 9.8h1.6c-.2.9-.7 1.6-1.5 2.1s-1.7.8-2.8.8c-1.4 0-2.5-.5-3.3-1.4s-1.2-2.2-1.2-3.8c0-1.6.4-2.9 1.2-3.8.8-1 1.9-1.4 3.3-1.4s2.4.5 3.2 1.4c.8.9 1.2 2.2 1.2 3.7v.6h-7.3v.1c0 1 .3 1.8.8 2.4s1.2.9 2.1.9c.7 0 1.2-.1 1.6-.4.6-.4.9-.7 1.1-1.2zm-4.7-5.4c-.5.6-.8 1.3-.9 2.2h5.6c0-.9-.3-1.6-.8-2.2-.5-.6-1.2-.8-1.9-.8-.8 0-1.4.2-2 .8zm26.2-2.1c-.4 1.4-.7 2.6-1 3.6-.3 1-.6 2-.8 3s-.6 2.2-1 3.6h-1.7l-2.3-7.9h-.2l-2.3 7.9h-1.6l-2.8-10.2h1.6l2 8.1h.2l2.3-8.1h1.6l2.3 8.1h.2l2-8.1h1.5zm13.3 7.5h1.6c-.2.9-.7 1.6-1.5 2.1s-1.7.8-2.8.8c-1.4 0-2.5-.5-3.3-1.4s-1.2-2.2-1.2-3.8c0-1.6.4-2.9 1.2-3.8.8-1 1.9-1.4 3.3-1.4s2.4.5 3.2 1.4c.8.9 1.2 2.2 1.2 3.7v.6h-7.3v.1c0 1 .3 1.8.8 2.4s1.2.9 2.1.9c.7 0 1.2-.1 1.6-.4.5-.4.9-.7 1.1-1.2zm-4.7-5.4c-.5.6-.8 1.3-.9 2.2h5.6c0-.9-.3-1.6-.8-2.2-.5-.6-1.2-.8-1.9-.8-.8 0-1.5.2-2 .8zm13.4 8.1v-14.2h1.6v14.2h-1.6zm9.2 0v-10.2h1.6v1.5h.1c.1-.5.5-.9 1-1.2.5-.3 1.1-.5 1.8-.5h.8v1.6c-.1 0-.2 0-.4-.1s-.4 0-.6 0c-.8 0-1.4.2-1.9.7-.5.5-.8 1.1-.8 1.8v6.3l-1.6.1zm12.4 3.6h-.4V201h.7c.5 0 .8-.1 1.1-.4s.5-.7.7-1.3l.2-.6-3.8-10.2h1.8l2.8 8.4h.1l2.8-8.4h1.7l-4 10.8c-.4 1.2-.9 2-1.4 2.4-.5.4-1.2.6-2.1.6-.1.1-.2.1-.2.1zm-41.5-66s6.2 5.4 9.7 1.1l-4.8-4.6-4.9 3.5zm-51.1 4.4c-4-9-8.7-17.7-11.9-27.1-2.8-8.1-4.7-16.5-5.8-25.1-2.2-17-.7-33.9 1.8-50.8.1-.6-.8-.9-1-.3-12.5 34.6-1.4 73.2 16.6 103.5.1.1.4 0 .3-.2z"></path>
    <path d="M42.4 38.2c-2.1-4-1.7-8.1-.3-12.2.9-2.7 2.3-5 4.6-6.7 1.4-1 4.1-3.4 5.1-1.7 1.7 2.9-.3 9.4-1.6 12-1.8 3.5-4.6 6.5-8 8.5-.3.2 0 .5.2.5 9.3-2.8 11.7-14.8 10.1-22.9-.1-.3-.4-.6-.7-.4-5.2 2.6-8.9 5.2-10.8 11-1.4 4.1-2 8.8 1.2 12.2 0 0 .3-.1.2-.3z"></path>
    <path d="M49.5 20.3C45 28.9 41 37.9 39.3 47.6c0 .2.3.4.4.1 3.3-9.2 6.1-18.4 9.8-27.4.1 0 0-.1 0 0zm-3.4 2.3c-2.8 4.2-4.7 9.4-4.5 14.5 0 .1.2.1.2 0 .9-5.2 1.9-9.8 4.3-14.5z"></path>
    <path d="M49.1 27c-1.8 3.7-3.7 7.2-6.2 10.5-.2.2.1.5.3.3 1.8-1.1 2.7-2.9 3.6-4.7 1-2 2-4 2.3-6.1.1-.1.1-.1 0 0zM45 58.7c-.7-4.5 1-8.2 3.8-11.6 1.5-1.9 3.2-3.5 5.5-4.5 1.2-.5 4.2-1.7 5.6-1.3 2.9.8-2.8 9.8-4 11.1-2.9 3.2-6.9 5.2-11 6.1-.3 0-.3.5 0 .5 9.8.5 16-10 17.2-18.4 0-.3-.2-.6-.6-.6-5.2.7-9.5 1.7-13.1 5.9-3 3.6-5.6 8.2-3.7 12.9 0 .2.3.1.3-.1z"></path>
    <path d="M57.6 44.2C50.5 50.9 43.7 58 39 66.6c-.1.2.2.4.4.2 6.1-7.5 11.7-15.3 18.2-22.6.1 0 0-.1 0 0zm-4 1c-4 3.1-7.5 7.3-9 12.2 0 .2.2.2.2.1 2.5-4.6 5.1-8.6 8.8-12.3.1 0 0 0 0 0z"></path>
    <path d="M55.1 50.3c-2.9 3-5.9 5.6-9.3 7.8-.2.1-.1.5.2.4 3.6-.8 7.2-5 9.1-8.2zm-6.4 49.3c-1.8-4.2-1.2-8.2.6-12.2 1-2.4 2.4-4.5 4.5-6 .8-.6 4.3-3 5.3-2.4 1 .6.3 4.8.2 5.6-.3 2.1-.9 4.2-1.9 6.1-2 3.8-5.3 6.8-9.1 8.8-.2.1-.2.6.1.5 9.5-2.1 12.8-13.9 11.8-22.2 0-.3-.4-.6-.7-.4-5.1 2.2-9 4.4-11.3 9.7-1.8 4.2-2.9 9 .1 12.8.2 0 .5-.1.4-.3z"></path>
    <path d="M57 82.2c-5.1 8.3-9.8 16.9-12.1 26.5-.1.2.3.3.4.1 4-8.9 7.4-17.8 11.7-26.6.1 0 .1 0 0 0z"></path>
    <path d="M53.5 84.3c-3.1 4-5.3 9.1-5.5 14.1 0 .2.2.2.2 0 1.2-5.1 2.6-9.6 5.3-14.1 0 0 0-.1 0 0zm2.7 4.5c-2 3.6-4.2 6.9-6.9 10-.1.2 0 .5.3.4 3.3-1.8 5.7-6.9 6.6-10.4.1 0 0 0 0 0zM33.3 77.5c2.2-4.3.3-8.9-2.3-12.6-3.2-4.8-7.5-6.2-12.9-7.4-.3-.1-.6.2-.6.6.5 8.3 5.9 19.3 15.6 19.7.3 0 .5-.4.1-.5-3.5-1-6.7-2.9-9.3-5.5-1.7-1.7-3-3.7-3.9-6-.4-1.1-2.2-5.5-1.5-6.5.7-1 4 .4 4.9.8 2.5 1 4.3 2.4 6 4.6 2.9 3.8 4.6 8.1 3.5 12.9.1 0 .3 0 .4-.1z"></path>
    <path d="M21.6 61.9c5.9 7.8 10.9 16 16.5 24 .1.2.5 0 .4-.2-4.1-9-10.3-16.7-16.9-23.8 0-.1-.1-.1 0 0z"></path>
    <path d="M25.5 63.2c3.5 3.9 5.7 8.1 7.8 12.9 0 .1.3.1.2-.1-1.1-4.9-4.3-9.4-8-12.8 0 0-.1 0 0 0zm-1.9 5c1.5 3.2 4.9 7.8 8.5 8.9.2.1.5-.2.2-.4-3.3-2.5-6-5.4-8.7-8.5zm22.9 60c.2-4.7-3.1-8-6.8-10.3-5.1-3.2-9.5-3-15.2-1.8-.3.1-.6.4-.4.7 3.9 7.4 13.3 15.4 22.3 11.6.3-.1.2-.5-.1-.5-3.8.5-7.6.1-11.1-1.4-1.9-.8-11.6-7.9-9-9.7.9-.6 3.2-.6 4.2-.6 2.4-.1 4.6.4 6.8 1.5 4.3 2.2 8 5.7 9 10.6 0 .1.3.1.3-.1z"></path>
    <path d="M29.5 118.8c8.6 4.7 16.5 10.1 24.8 15.2.2.1.4-.2.2-.4-7.3-6.5-16.1-11-25-14.8-.1-.1-.1 0 0 0z"></path>
    <path d="M33.5 118.4c4.8 2.2 8.6 5.1 12.4 8.6.1.1.3-.1.2-.2-3.1-4-7.7-6.8-12.6-8.4zm.4 5.3c1.7 1.5 3.8 2.4 5.9 3.4 1.7.8 3.5 1.5 5.5 1.3.3 0 .3-.4 0-.4-4-1-7.7-2.5-11.4-4.3zM31 45.9c1.8 2 3 4.2 4.2 6.6 2.4 4.5 3 8.1 2.3 13.1 0 .2.3.4.4.2 3.8-6.1-2.7-15.6-6.8-20-.1-.1-.2 0-.1.1z"></path>
    <path d="M32.3 41c1.4-3-4-4.6-6.1-4.1-3.2.9-4.9 4.7-3.5 7.7 1.4 3.1 6 4.5 8.7 2.1 2.9-2.6.5-7.9-3.3-7.8-1.9.1-3.6 1.6-3.6 3.5 0 1.6 1.5 3.4 3.2 2.7.3-.1.4-.4.1-.6-.8-.8-1.8-2.6-.1-3.2 1.5-.5 2.8 1.2 2.8 2.5-.1 3.1-4.1 2.7-5.7 1.1-1.7-1.7-1.3-4.5.4-6 1.9-1.6 6.8-1.1 7 2.1 0 .1 0 .1.1 0zm31.4 71.9c-3.1 2.8-5.8 6.4-7.7 10.2-1.4 2.9-3.3 7.6-1.9 10.7.1.3.5.2.5-.1.2-7.9 3.5-15.2 9.2-20.7 0-.1-.1-.2-.1-.1z"></path>
    <path d="M62.9 108.1c-1.1-3.2 4.4-4.2 6.4-3.5 3.1 1.2 4.4 5.1 2.8 7.9-1.7 3-6.4 3.9-8.8 1.3-2.7-2.9.2-7.9 4-7.4 1.8.2 3.4 1.9 3.3 3.8-.1 1.6-1.8 3.2-3.4 2.4-.3-.1-.3-.4-.1-.7.9-.8 2-2.5.4-3.2-1.5-.7-2.9.9-3 2.2-.2 3.1 3.8 3 5.6 1.6 1.8-1.5 1.7-4.4.1-6.1-1.7-1.6-6.7-1.5-7.3 1.7.1 0 0 0 0 0zM32.3 97.8c5.2 2.7 10.5 7.6 12.4 13.2.1.2.4.2.4 0 .2-2.7-2.5-5.3-4.2-7.1-2.4-2.5-5.4-4.8-8.6-6.2 0-.1-.1 0 0 .1z"></path>
    <path d="M31.8 93.6c.1-2.8-4.6-2.3-6-1.2-2.2 1.7-2.3 5.2-.3 7 2.1 2 6.1 1.6 7.4-1.1 1.5-2.9-2.1-6.2-5-5-1.4.6-2.3 2.3-1.7 3.8.5 1.3 2.2 2.2 3.3 1.1.2-.2.1-.4-.1-.5-.9-.4-2.2-1.5-1.1-2.5 1-.9 2.5 0 2.9 1.1.9 2.4-2.3 3.4-4 2.7-1.8-.8-2.5-3.1-1.6-4.8 1-1.9 4.9-3 6.1-.6h.1zM46.4 75c-3.2 2.8-8.1 8.8-6.1 13.3.1.2.3.1.3-.1-.2-5.1 2.3-9.6 5.8-13.2.2 0 .1-.1 0 0z"></path>
    <path d="M45.9 71.6c-.8-2.2 3.1-2.9 4.5-2.4 2.1.8 3 3.6 1.9 5.5-1.2 2.1-4.5 2.7-6.1.9-1.9-2 .2-5.5 2.8-5.1 1.3.2 2.4 1.3 2.3 2.7-.1 1.1-1.2 2.2-2.4 1.7-.2-.1-.2-.3 0-.4.6-.5 1.4-1.7.3-2.2-1-.5-2 .6-2.1 1.6-.2 2.1 2.7 2.1 3.8 1.2 1.3-1 1.2-3 .1-4.2-1.2-1.5-4.6-1.4-5.1.7.1.1.1.1 0 0zm125.2 69.2c4-9 8.5-17.8 11.7-27.1 2.8-8.1 4.6-16.6 5.6-25.1 2.1-17 .5-33.9-2.2-50.8-.1-.6.8-.9 1-.3 12.8 34.4 1.9 73-15.9 103.4 0 .2-.3.1-.2-.1z"></path>
    <path d="M186.6 38.1c2.1-4 1.6-8.1.2-12.2-.9-2.7-2.3-5-4.6-6.7-1.4-1-4.1-3.3-5.1-1.7-1.7 2.9.4 9.4 1.7 12 1.8 3.5 4.7 6.4 8.1 8.5.3.2 0 .5-.2.5-9.3-2.7-11.8-14.7-10.3-22.9.1-.3.4-.6.7-.4 5.2 2.6 8.9 5.2 10.9 10.9 1.4 4.1 2 8.8-1.1 12.3-.1 0-.4-.1-.3-.3z"></path>
    <path d="M179.4 20.2c4.6 8.6 8.7 17.5 10.4 27.2 0 .2-.3.4-.4.1-3.4-9.1-6.2-18.3-10-27.3z"></path>
    <path d="M182.8 22.5c2.8 4.2 4.7 9.4 4.6 14.5 0 .1-.2.1-.2 0-.9-5.2-2-9.8-4.4-14.5zm-3 4.4c1.8 3.7 3.7 7.2 6.3 10.4.2.2-.1.5-.3.3-1.8-1.1-2.7-2.8-3.6-4.7-1-1.9-2-3.9-2.4-6zm4.4 31.8c.6-4.5-1.1-8.2-3.9-11.6-1.5-1.9-3.3-3.5-5.6-4.4-1.2-.5-4.2-1.7-5.6-1.3-2.9.8 2.9 9.8 4.1 11.1 2.9 3.1 6.9 5.2 11.1 6 .3 0 .3.5 0 .5-9.8.5-16-10-17.3-18.2-.1-.3.2-.6.6-.6 5.2.7 9.5 1.6 13.1 5.8 3.1 3.6 5.7 8.1 3.8 12.8-.1.1-.3 0-.3-.1z"></path>
    <path d="M171.5 44.1c7.2 6.6 14 13.7 18.8 22.3.1.2-.2.4-.4.2-6.2-7.4-11.9-15.2-18.4-22.5-.1.1 0 0 0 0z"></path>
    <path d="M175.4 45.2c4 3 7.5 7.3 9.1 12.1.1.2-.1.2-.2.1-2.5-4.6-5.1-8.6-8.9-12.2zm-1.3 5.1c2.9 2.9 5.9 5.5 9.4 7.8.2.1.1.5-.1.4-3.8-.8-7.5-5-9.3-8.2-.1 0-.1 0 0 0zm6.6 49.2c1.8-4.2 1.1-8.2-.7-12.2-1.1-2.4-2.5-4.5-4.6-6-.8-.6-4.4-3-5.3-2.4-1 .6-.3 4.8-.2 5.6.3 2.1.9 4.2 1.9 6.1 2 3.8 5.3 6.8 9.1 8.7.2.1.2.6-.1.5-9.6-2-12.9-13.8-11.9-22.1 0-.3.4-.6.7-.4 5.1 2.1 9 4.3 11.4 9.6 1.9 4.1 3 8.9 0 12.8-.1.1-.4 0-.3-.2z"></path>
    <path d="M172.3 82.2c5.2 8.3 9.9 16.9 12.3 26.4.1.2-.3.3-.4.1-4.1-8.8-7.5-17.8-11.9-26.5-.1 0-.1-.1 0 0z"></path>
    <path d="M175.8 84.2c3.1 4 5.4 9 5.6 14.1 0 .2-.2.2-.2 0-1.3-5-2.7-9.5-5.4-14.1zm-2.7 4.6c2.1 3.6 4.2 6.9 7 9.9.1.2-.1.5-.3.4-3.3-1.7-5.8-6.8-6.7-10.3zm22.8-11.5c-2.3-4.3-.3-8.9 2.2-12.6 3.2-4.8 7.4-6.3 12.9-7.5.3-.1.6.2.6.6-.5 8.3-5.7 19.4-15.5 19.8-.3 0-.5-.4-.1-.5 3.5-1.1 6.7-2.9 9.2-5.6 1.7-1.7 2.9-3.8 3.8-6 .4-1.1 2.2-5.5 1.4-6.5-.7-1-4 .5-4.8.8-2.5 1-4.3 2.5-5.9 4.6-2.9 3.8-4.6 8.2-3.4 12.9 0 .1-.3.2-.4 0z"></path>
    <path d="M207.6 61.6c-5.9 7.8-10.8 16.1-16.3 24.1-.1.2-.5 0-.4-.2 4-9 10.1-16.7 16.7-23.9 0-.1 0 0 0 0z"></path>
    <path d="M203.7 63c-3.5 4-5.6 8.2-7.7 13-.1.1-.3.1-.2-.1 1-4.9 4.2-9.5 7.9-12.9zm1.9 5c-1.5 3.3-4.8 7.8-8.4 9-.2.1-.5-.2-.2-.4 3.2-2.6 5.9-5.4 8.6-8.6zm-22.5 60.1c-.3-4.7 3-8 6.7-10.4 5-3.3 9.5-3 15.1-1.9.3.1.6.4.4.7-3.9 7.4-13.2 15.4-22.2 11.8-.3-.1-.2-.5.1-.5 3.8.5 7.6 0 11.1-1.5 1.9-.8 11.5-7.9 8.9-9.8-.9-.6-3.2-.6-4.2-.6-2.4-.1-4.6.4-6.8 1.5-4.3 2.2-8 5.7-8.9 10.6.1.3-.2.4-.2.1z"></path>
    <path d="M200.1 118.6c-8.5 4.7-16.4 10.2-24.7 15.3-.2.1-.4-.2-.2-.4 7.2-6.5 15.9-11 24.9-14.9 0-.1 0 0 0 0z"></path>
    <path d="M196 118.3c-4.8 2.2-8.5 5.2-12.4 8.7-.1.1-.3-.1-.2-.2 3.1-4.1 7.8-7 12.6-8.5 0-.1 0 0 0 0zm-.3 5.3c-1.7 1.5-3.8 2.5-5.9 3.4-1.7.8-3.5 1.5-5.5 1.3-.3 0-.3-.4 0-.4 4-1 7.7-2.5 11.4-4.3 0-.1 0 0 0 0zm2.4-77.9c-1.7 2-2.9 4.2-4.2 6.6-2.3 4.5-2.9 8.1-2.2 13.2 0 .2-.3.4-.4.2-3.8-6 2.6-15.6 6.7-20 0-.1.2 0 .1 0z"></path>
    <path d="M196.8 40.9c-1.4-3 4-4.7 6.1-4.1 3.2.8 4.9 4.7 3.6 7.7-1.4 3.1-6 4.5-8.7 2.2-2.9-2.6-.5-7.9 3.3-7.8 1.9 0 3.6 1.5 3.7 3.5.1 1.6-1.4 3.4-3.2 2.7-.3-.1-.4-.4-.1-.6.8-.8 1.8-2.6.1-3.2-1.5-.5-2.8 1.2-2.7 2.5.1 3.1 4.1 2.7 5.7 1.1 1.7-1.7 1.3-4.5-.4-6-1.9-1.6-6.8-1-7 2.1-.3-.1-.4-.1-.4-.1zm-31 72c3.1 2.8 5.9 6.4 7.7 10.2 1.4 2.8 3.4 7.6 1.9 10.7-.1.3-.5.2-.5-.1-.2-7.9-3.6-15.2-9.3-20.7.1 0 .2-.1.2-.1z"></path>
    <path d="M166.6 108.1c1.1-3.2-4.4-4.2-6.5-3.5-3.1 1.2-4.4 5.2-2.8 8 1.7 3 6.4 3.9 8.9 1.3 2.7-2.9-.3-7.9-4-7.4-1.9.2-3.4 1.9-3.3 3.8.1 1.6 1.8 3.2 3.4 2.4.3-.1.3-.5.1-.7-.9-.8-2-2.4-.4-3.2 1.5-.7 2.9.9 3 2.2.2 3.1-3.8 3.1-5.5 1.7-1.9-1.5-1.8-4.4-.2-6 1.7-1.9 6.6-1.8 7.3 1.4-.1 0-.1 0 0 0zm30.5-10.5c-5.2 2.7-10.4 7.7-12.3 13.3-.1.2-.4.2-.4 0-.3-2.7 2.4-5.3 4.1-7.1 2.4-2.6 5.4-4.8 8.5-6.3.1-.1.2.1.1.1z"></path>
    <path d="M197.6 93.4c-.1-2.8 4.6-2.3 6-1.3 2.2 1.7 2.3 5.1.4 7-2 2-6.1 1.6-7.4-1-1.5-2.9 2.1-6.3 5-5 1.4.6 2.3 2.3 1.8 3.8-.5 1.3-2.2 2.2-3.3 1.1-.2-.2-.1-.4.1-.5.9-.4 2.2-1.5 1.1-2.5-1-.9-2.5 0-2.9 1.1-.9 2.4 2.3 3.3 4.1 2.6 1.8-.8 2.4-3.1 1.6-4.8-1-1.9-4.9-2.9-6.1-.6-.3.2-.4.2-.4.1zm-14.8-18.5c3.2 2.8 8.2 8.7 6.2 13.3-.1.2-.3.1-.3-.1.2-5.1-2.3-9.6-5.9-13.2-.1.1 0 0 0 0z"></path>
    <path d="M183.3 71.6c.8-2.2-3.1-2.9-4.5-2.4-2.1.8-3 3.6-1.9 5.5 1.2 2.1 4.5 2.7 6.1.8 1.8-2-.2-5.5-2.8-5.1-1.3.2-2.4 1.3-2.3 2.7.1 1.1 1.2 2.2 2.4 1.7.2-.1.2-.3.1-.4-.6-.5-1.4-1.7-.3-2.2 1-.5 2 .6 2.1 1.5.2 2.1-2.6 2.2-3.8 1.2-1.3-1-1.2-3-.1-4.2 1.1-1.4 4.6-1.3 5 .9-.1 0 0 0 0 0zm-73.2-24.7c.6-2 1.1-4.1 1.8-6.1.7-2.2 1.5-4.3 2.3-6.4.5-1.4 1.4-1.2 2.4-.4 2.7 2.1 3.9 5 3.9 8.4 0 3.6-1 7-2.4 10.3-.8 1.8-1.3 3.6-1.9 5.4-.5 1.4 0 2 1.5 1.9 5.7-.2 9.5 2.8 12.1 7.3 1.8 3.1 2.8 6.6 4 9.9.7 1.9-.4 4.3-2.3 5.2-2.3 1-4.6 1.9-7 2.9 1 1.2 2.3 2.4 3.3 3.9 1.3 1.9 2.7 3.9 3.6 6 .8 1.7 1.1 3.6 1.4 5.4.2 1.2.7 2 1.6 2.8 4.2 3.8 7.3 8.1 6.7 14.2-.1 1 .5 2.1.6 3.1.4 3.3-.8 6.2-2.5 8.8-.6 1-1.3 1.9-2 2.8-1 1.1-1.9 2-1 3.6.2.3-.1 1.1-.4 1.5-1 1.2-4.4 1.8-5.7.9-2.2-1.5-4.6-2.3-7.2-2.5-1.8-.1-2.3.6-1.7 2.2.7 1.6.3 2.5-1.4 2.7-1.5.2-3.1.1-4.6.2-.4 0-.8-.1-1.2 0-2.5.3-2.8 0-3-2.6 0-.4-.3-1.1-.7-1.3-1.5-.7-3.1-1.3-4.8-2 .2.7.4 1.4.6 2.2.3 1.6-.4 2.4-1.9 2.5-1.5.1-3.1.2-4.6.4-2.4.4-4-1.3-3-3.6 1.3-2.9.6-5.7.2-8.5-.9-5.6-1.9-11.2-2.9-16.9-.2-.9-.2-1.9-.1-2.9.7-4.3 1.4-8.5 2.2-12.8.6-3.1 1.2-6.2 2.2-9.2.5-1.6 1.7-3 2.5-4.6.3-.5.6-1.2.4-1.6-2-5.1-.5-9.9.7-14.8.3-1.1.2-2.4-.2-3.5-.7-1.9-1.7-3.7-2.8-5.4-2.6-4-4.8-8.2-5.5-13-.5-3.5-.2-7 1.5-10.2 1-1.9 1.4-2 3.2-.9 5.4 3.3 9.3 7.8 10.9 14 0 .2.2.3.3.4.5.3.7.3.9.3z"></path>
  </symbol>
  <symbol xmlns="http://www.w3.org/2000/svg" viewBox="0 0 17 17" id="mail">
    <path d="M11.269 8.587l5.73 3.623V4.811l-5.73 3.776zM0 4.811v7.4l5.731-3.624L0 4.811zm15.936-2.155H1.06c-.53 0-.951.395-1.03.904l8.467 5.58 8.469-5.58a1.05 1.05 0 00-1.031-.904zm-5.639 6.573l-1.503.99a.53.53 0 01-.585 0l-1.503-.991-6.67 4.219c.081.505.5.897 1.028.897H15.94c.528 0 .947-.392 1.029-.897l-6.67-4.218z"></path>
  </symbol>
  <symbol xmlns="http://www.w3.org/2000/svg" viewBox="0 0 25 25" id="map">
    <path d="M18.659 2.555A8.663 8.663 0 0012.5 0c-2.327 0-4.516.912-6.204 2.555-3.057 3.056-3.422 8.805-.821 12.317L12.5 25l6.98-10.128c2.646-3.512 2.235-9.26-.821-12.317z"></path>
    <path d="M12.5 12.5a3.513 3.513 0 100-7.026 3.513 3.513 0 000 7.026z" fill="#FAFAFB"></path>
  </symbol>
  <symbol fill="none" xmlns="http://www.w3.org/2000/svg" viewBox="0 0 19 13" id="menu">
    <rect width="19" height="1.14" rx=".57" fill="#333"></rect>
    <rect y="5.7" width="19" height="1.14" rx=".57" fill="#333"></rect>
    <rect y="11.4" width="19" height="1.14" rx=".57" fill="#333"></rect>
  </symbol>
  <symbol xmlns="http://www.w3.org/2000/svg" viewBox="0 0 13 13" id="phone">
    <path d="M12.646 9.54l-1.814-1.813c-.648-.648-1.75-.39-2.009.453-.194.583-.842.907-1.425.778-1.296-.324-3.045-2.009-3.37-3.37-.194-.583.195-1.23.778-1.425.842-.26 1.102-1.36.454-2.009L3.446.34c-.519-.453-1.296-.453-1.75 0L.466 1.571C-.767 2.867.594 6.301 3.64 9.346c3.045 3.046 6.48 4.471 7.775 3.175l1.231-1.23c.454-.52.454-1.297 0-1.75z"></path>
  </symbol>
  <symbol xmlns="http://www.w3.org/2000/svg" viewBox="0 0 15 13" id="refresh">
    <path d="M8.519 0C4.946 0 2.04 2.909 2.04 6.481v.022L.757 4.57a.414.414 0 00-.689.456L1.93 7.83a.414.414 0 00.294.18c.018.003.033.003.052.003a.405.405 0 00.275-.107l2.587-2.33a.415.415 0 00.031-.585.415.415 0 00-.585-.03L2.867 6.512v-.03A5.658 5.658 0 018.519.826a5.661 5.661 0 015.654 5.654 5.658 5.658 0 01-5.651 5.655c-1.51 0-2.93-.587-3.996-1.656a.412.412 0 00-.585 0 .412.412 0 000 .585 6.433 6.433 0 004.58 1.898A6.487 6.487 0 0015 6.48 6.488 6.488 0 008.519 0z"></path>
  </symbol>
  <symbol fill="none" xmlns="http://www.w3.org/2000/svg" viewBox="0 0 133 30" id="richbee">
    <path d="M44.72 21.7c.493 0 .94.113 1.34.34.4.22.713.533.94.94.227.407.34.87.34 1.39 0 .527-.113.993-.34 1.4a2.43 2.43 0 01-.94.95c-.393.22-.84.33-1.34.33-.427 0-.813-.087-1.16-.26-.34-.18-.62-.44-.84-.78v2.93h-.71v-7.2h.68v1.04c.213-.347.493-.613.84-.8.353-.187.75-.28 1.19-.28zm-.05 4.72c.367 0 .7-.083 1-.25.3-.173.533-.417.7-.73.173-.313.26-.67.26-1.07s-.087-.753-.26-1.06a1.802 1.802 0 00-.7-.73c-.3-.173-.633-.26-1-.26-.373 0-.71.087-1.01.26a1.892 1.892 0 00-.7.73c-.167.307-.25.66-.25 1.06s.083.757.25 1.07c.173.313.407.557.7.73.3.167.637.25 1.01.25zm5.976-4.72c.687 0 1.213.173 1.58.52.367.34.55.847.55 1.52V27h-.68v-.82a1.62 1.62 0 01-.71.64c-.306.153-.673.23-1.1.23-.587 0-1.053-.14-1.4-.42-.347-.28-.52-.65-.52-1.11 0-.447.16-.807.48-1.08.327-.273.844-.41 1.55-.41h1.67v-.32c0-.453-.127-.797-.38-1.03-.253-.24-.623-.36-1.11-.36-.333 0-.653.057-.96.17a2.37 2.37 0 00-.79.45l-.32-.53c.267-.227.587-.4.96-.52.373-.127.767-.19 1.18-.19zm-.25 4.79c.4 0 .743-.09 1.03-.27.287-.187.5-.453.64-.8v-.86h-1.65c-.9 0-1.35.313-1.35.94 0 .307.117.55.35.73.234.173.56.26.98.26zm6.723-2.23c.373.087.66.237.86.45.206.213.31.473.31.78a1.2 1.2 0 01-.32.82c-.207.24-.49.427-.85.56-.36.127-.757.19-1.19.19-.38 0-.754-.053-1.12-.16a2.969 2.969 0 01-.96-.49l.24-.53c.24.18.52.32.84.42.32.1.643.15.97.15.486 0 .883-.09 1.19-.27.313-.187.47-.437.47-.75 0-.28-.127-.497-.38-.65-.254-.16-.6-.24-1.04-.24h-.9v-.52h.86c.393 0 .71-.073.95-.22.24-.153.36-.357.36-.61 0-.28-.137-.5-.41-.66-.267-.16-.617-.24-1.05-.24-.567 0-1.127.143-1.68.43l-.2-.55a4.167 4.167 0 011.95-.49c.4 0 .76.06 1.08.18.327.113.58.277.76.49.186.213.28.46.28.74 0 .267-.094.503-.28.71-.18.207-.427.36-.74.46zm5.492-2.56c.493 0 .94.113 1.34.34.4.22.713.533.94.94.226.407.34.87.34 1.39 0 .527-.114.993-.34 1.4a2.43 2.43 0 01-.94.95 2.7 2.7 0 01-1.34.33c-.427 0-.814-.087-1.16-.26-.34-.18-.62-.44-.84-.78v2.93h-.71v-7.2h.68v1.04c.213-.347.493-.613.84-.8.353-.187.75-.28 1.19-.28zm-.05 4.72c.366 0 .7-.083 1-.25.3-.173.533-.417.7-.73.173-.313.26-.67.26-1.07s-.087-.753-.26-1.06a1.801 1.801 0 00-.7-.73c-.3-.173-.634-.26-1-.26-.374 0-.71.087-1.01.26a1.893 1.893 0 00-.7.73c-.167.307-.25.66-.25 1.06s.083.757.25 1.07c.173.313.406.557.7.73.3.167.636.25 1.01.25zm5.976-4.72c.686 0 1.213.173 1.58.52.367.34.55.847.55 1.52V27h-.68v-.82c-.16.273-.397.487-.71.64-.307.153-.674.23-1.1.23-.587 0-1.053-.14-1.4-.42-.347-.28-.52-.65-.52-1.11 0-.447.16-.807.48-1.08.327-.273.843-.41 1.55-.41h1.67v-.32c0-.453-.127-.797-.38-1.03-.254-.24-.623-.36-1.11-.36-.334 0-.653.057-.96.17a2.36 2.36 0 00-.79.45l-.32-.53c.266-.227.587-.4.96-.52.373-.127.767-.19 1.18-.19zm-.25 4.79c.4 0 .743-.09 1.03-.27.287-.187.5-.453.64-.8v-.86h-1.65c-.9 0-1.35.313-1.35.94 0 .307.117.55.35.73.233.173.56.26.98.26zm6.82-4.62c.487 0 .92.11 1.3.33.386.213.687.517.9.91.213.387.32.83.32 1.33 0 .513-.114.97-.34 1.37-.22.393-.53.7-.93.92-.4.22-.86.33-1.38.33-.874 0-1.55-.307-2.03-.92-.48-.613-.72-1.46-.72-2.54 0-1.127.213-1.99.64-2.59.433-.6 1.106-1.007 2.02-1.22l2.36-.54.12.65-2.22.51c-.754.167-1.307.463-1.66.89-.353.42-.547 1.043-.58 1.87.213-.407.51-.723.89-.95.38-.233.817-.35 1.31-.35zm-.11 4.6c.367 0 .693-.083.98-.25a1.77 1.77 0 00.68-.72c.166-.307.25-.653.25-1.04s-.08-.727-.24-1.02a1.67 1.67 0 00-.68-.68 1.933 1.933 0 00-.99-.25c-.373 0-.707.083-1 .25-.287.16-.513.387-.68.68-.16.293-.24.633-.24 1.02s.08.733.24 1.04c.167.307.397.547.69.72.293.167.623.25.99.25zm6.322.58a2.76 2.76 0 01-1.37-.34 2.551 2.551 0 01-.96-.96 2.722 2.722 0 01-.35-1.38c0-.513.116-.973.35-1.38a2.48 2.48 0 01.96-.95 2.76 2.76 0 011.37-.34c.506 0 .963.113 1.37.34.406.227.723.543.95.95.233.407.35.867.35 1.38 0 .513-.117.973-.35 1.38a2.48 2.48 0 01-.95.96c-.407.227-.864.34-1.37.34zm0-.63c.373 0 .706-.083 1-.25.3-.173.533-.417.7-.73.166-.313.25-.67.25-1.07s-.084-.757-.25-1.07a1.737 1.737 0 00-.7-.72 1.929 1.929 0 00-1-.26c-.374 0-.71.087-1.01.26a1.82 1.82 0 00-.7.72c-.167.313-.25.67-.25 1.07s.083.757.25 1.07c.173.313.406.557.7.73.3.167.636.25 1.01.25zm7.692-4.05h-1.99V27h-.71v-4.63h-1.99v-.63h4.69v.63zm2.936 2.29h-1.2V27h-.71v-5.26h.71v2.31h1.21l1.85-2.31h.77l-2.07 2.55 2.22 2.71h-.84l-1.94-2.34zm5.613-2.96c.687 0 1.214.173 1.58.52.367.34.55.847.55 1.52V27h-.68v-.82a1.62 1.62 0 01-.71.64c-.306.153-.673.23-1.1.23-.586 0-1.053-.14-1.4-.42-.346-.28-.52-.65-.52-1.11 0-.447.16-.807.48-1.08.327-.273.844-.41 1.55-.41h1.67v-.32c0-.453-.126-.797-.38-1.03-.253-.24-.623-.36-1.11-.36-.333 0-.653.057-.96.17a2.37 2.37 0 00-.79.45l-.32-.53c.267-.227.587-.4.96-.52.374-.127.767-.19 1.18-.19zm-.25 4.79c.4 0 .744-.09 1.03-.27.287-.187.5-.453.64-.8v-.86h-1.65c-.9 0-1.35.313-1.35.94 0 .307.117.55.35.73.234.173.56.26.98.26zm9.088.56c-.52 0-.987-.113-1.4-.34a2.476 2.476 0 01-.96-.95 2.77 2.77 0 01-.35-1.39c0-.513.116-.973.35-1.38.233-.407.553-.723.96-.95.413-.227.88-.34 1.4-.34.453 0 .856.09 1.21.27.36.173.643.43.85.77l-.53.36a1.63 1.63 0 00-.66-.58 1.92 1.92 0 00-.87-.2c-.38 0-.724.087-1.03.26-.3.167-.537.407-.711.72a2.25 2.25 0 00-.249 1.07c0 .407.083.767.249 1.08.174.307.411.547.711.72.306.167.65.25 1.03.25.313 0 .603-.063.87-.19a1.63 1.63 0 00.66-.58l.53.36c-.207.34-.49.6-.85.78a2.76 2.76 0 01-1.21.26zm5.244-5.35c.687 0 1.214.173 1.58.52.367.34.55.847.55 1.52V27h-.68v-.82a1.62 1.62 0 01-.71.64c-.306.153-.673.23-1.1.23-.586 0-1.053-.14-1.4-.42-.346-.28-.52-.65-.52-1.11 0-.447.16-.807.48-1.08.327-.273.844-.41 1.55-.41h1.67v-.32c0-.453-.126-.797-.38-1.03-.253-.24-.623-.36-1.11-.36a2.75 2.75 0 00-.96.17 2.36 2.36 0 00-.79.45l-.32-.53c.267-.227.587-.4.96-.52.374-.127.767-.19 1.18-.19zm-.25 4.79c.4 0 .744-.09 1.03-.27.287-.187.5-.453.64-.8v-.86h-1.65c-.9 0-1.35.313-1.35.94 0 .307.117.55.35.73.234.173.56.26.98.26zm4.27-4.75h.71v4.18l3.51-4.18h.63V27h-.71v-4.18l-3.5 4.18h-.64v-5.26zm2.39-.76c-.453 0-.813-.113-1.08-.34-.266-.227-.403-.547-.41-.96h.51c.007.26.1.47.28.63.18.153.414.23.7.23.287 0 .52-.077.7-.23a.816.816 0 00.29-.63h.51c-.006.413-.146.733-.42.96-.266.227-.626.34-1.08.34zm8.195 1.39h-1.99V27h-.71v-4.63h-1.99v-.63h4.69v.63zm2.837-.67c.686 0 1.213.173 1.58.52.366.34.55.847.55 1.52V27h-.68v-.82c-.16.273-.397.487-.71.64-.307.153-.674.23-1.1.23-.587 0-1.054-.14-1.4-.42-.347-.28-.52-.65-.52-1.11 0-.447.16-.807.48-1.08.326-.273.843-.41 1.55-.41h1.67v-.32c0-.453-.127-.797-.38-1.03-.254-.24-.624-.36-1.11-.36a2.75 2.75 0 00-.96.17 2.35 2.35 0 00-.79.45l-.32-.53c.266-.227.586-.4.96-.52.373-.127.766-.19 1.18-.19zm-.25 4.79c.4 0 .743-.09 1.03-.27.286-.187.5-.453.64-.8v-.86h-1.65c-.9 0-1.35.313-1.35.94 0 .307.116.55.35.73.233.173.56.26.98.26zM25 0H5a5 5 0 00-5 5v20a5 5 0 005 5h20a5 5 0 005-5V5a5 5 0 00-5-5zM12.32 20.05l-4-7h4.5l4 7h-4.5zM22 25l-7-12h4.5a3.39 3.39 0 001.94-.56 2.05 2.05 0 000-2.88A2 2 0 0020 9H6L3.5 5H20a6 6 0 014.24 10.24 5.88 5.88 0 01-2.55 1.51L26.5 25H22zm28.064-12l-2.72-3.825a8.62 8.62 0 01-.952.051h-3.196V13h-1.258V1.1h4.454c1.519 0 2.709.363 3.57 1.088.861.725 1.292 1.723 1.292 2.992 0 .93-.238 1.717-.714 2.363-.465.635-1.133 1.094-2.006 1.377L51.441 13h-1.377zm-3.706-4.845c1.179 0 2.08-.26 2.703-.782.623-.521.935-1.252.935-2.193 0-.963-.312-1.7-.935-2.21-.623-.521-1.524-.782-2.703-.782h-3.162v5.967h3.162zM54.223 1.1h1.258V13h-1.258V1.1zm10.298 12.002c-1.179 0-2.244-.26-3.196-.782a5.823 5.823 0 01-2.227-2.159c-.533-.93-.799-1.966-.799-3.111 0-1.145.266-2.176.799-3.094a5.753 5.753 0 012.244-2.176c.952-.521 2.017-.782 3.196-.782.884 0 1.7.147 2.448.442a5.074 5.074 0 011.904 1.292l-.799.799c-.93-.94-2.102-1.411-3.519-1.411-.94 0-1.796.215-2.567.646a4.783 4.783 0 00-1.819 1.768c-.43.748-.646 1.587-.646 2.516 0 .93.215 1.768.646 2.516a4.784 4.784 0 001.819 1.768c.77.43 1.626.646 2.567.646 1.428 0 2.601-.476 3.519-1.428l.799.799a5.218 5.218 0 01-1.921 1.309 6.62 6.62 0 01-2.448.442zM81.517 1.1V13h-1.241V7.51H72.83V13h-1.258V1.1h1.258v5.304h7.446V1.1h1.24zm11.38 5.763c.783.17 1.384.51 1.803 1.02.43.499.646 1.145.646 1.938 0 1.02-.38 1.808-1.14 2.363-.747.544-1.858.816-3.331.816H85.4V1.1h5.134c1.326 0 2.352.266 3.077.799.737.533 1.105 1.286 1.105 2.261 0 .657-.164 1.218-.493 1.683-.317.453-.76.793-1.326 1.02zM86.66 2.137v4.318h3.79c.964 0 1.707-.181 2.228-.544.521-.374.782-.912.782-1.615s-.26-1.235-.782-1.598c-.521-.374-1.264-.561-2.227-.561H86.66zm4.199 9.826c1.065 0 1.87-.181 2.414-.544.544-.363.816-.93.816-1.7 0-1.485-1.077-2.227-3.23-2.227h-4.2v4.471h4.2zm15.774-.051V13h-8.415V1.1h8.16v1.088h-6.902v4.233h6.154v1.071h-6.154v4.42h7.157zm11.372 0V13h-8.415V1.1h8.16v1.088h-6.902v4.233h6.154v1.071h-6.154v4.42h7.157z" fill="#777"></path>
  </symbol>
  <symbol fill="none" xmlns="http://www.w3.org/2000/svg" viewBox="0 0 20 20" id="russia">
    <path d="M10 20c5.523 0 10-4.477 10-10S15.523 0 10 0 0 4.477 0 10s4.477 10 10 10z" fill="#F0F0F0"></path>
    <path d="M19.378 13.478A9.977 9.977 0 0020 10c0-1.223-.22-2.395-.622-3.478H.622A9.979 9.979 0 000 10c0 1.223.22 2.395.622 3.478l9.378.87 9.378-.87z" fill="#0052B4"></path>
    <path d="M10 20c4.3 0 7.965-2.714 9.378-6.522H.622A10.003 10.003 0 0010 20z" fill="#D80027"></path>
  </symbol>
  <symbol xmlns="http://www.w3.org/2000/svg" viewBox="0 0 27 16" id="sort">
    <path d="M7.72 15.902l4.688-5a.349.349 0 000-.471.299.299 0 00-.441 0l-4.155 4.431V.333C7.812.15 7.672 0 7.5 0c-.173 0-.313.15-.313.333v14.529l-4.154-4.431a.299.299 0 00-.441 0 .344.344 0 00-.092.236c0 .085.03.17.092.235l4.687 5a.3.3 0 00.442 0zM19.28.098l-4.688 5a.349.349 0 000 .471c.122.13.32.13.441 0l4.155-4.431v14.529c0 .184.14.333.312.333.173 0 .313-.15.313-.333V1.138l4.154 4.431c.122.13.32.13.441 0a.344.344 0 00.092-.236c0-.085-.03-.17-.092-.235l-4.687-5a.299.299 0 00-.442 0z"></path>
  </symbol>
  <!-- <symbol xmlns="http://www.w3.org/2000/svg" viewBox="0 0 20 20" id="user">
    <path d="M17.071 12.929a9.963 9.963 0 00-3.8-2.384 5.78 5.78 0 002.51-4.764A5.788 5.788 0 0010 0a5.788 5.788 0 00-5.781 5.781 5.78 5.78 0 002.51 4.764 9.962 9.962 0 00-3.8 2.384A9.935 9.935 0 000 20h1.563c0-4.652 3.785-8.438 8.437-8.438 4.652 0 8.438 3.786 8.438 8.438H20a9.935 9.935 0 00-2.929-7.071zM10 10a4.224 4.224 0 01-4.219-4.219A4.224 4.224 0 0110 1.563a4.224 4.224 0 014.219 4.218A4.224 4.224 0 0110 10z"></path>
  </symbol> -->
  <symbol xmlns="http://www.w3.org/2000/svg" viewBox="0 0 24 14" id="vk">
    <path d="M23.873 12.366a1.657 1.657 0 00-.082-.156c-.416-.75-1.212-1.67-2.386-2.762l-.025-.025-.012-.012-.013-.012h-.013c-.533-.509-.87-.85-1.012-1.025-.258-.333-.316-.67-.175-1.013.1-.258.475-.803 1.125-1.636.341-.442.612-.796.812-1.062 1.441-1.917 2.066-3.141 1.874-3.674l-.074-.125c-.05-.075-.18-.143-.387-.206-.209-.062-.475-.073-.8-.031l-3.599.025a.467.467 0 00-.25.006l-.163.038-.062.03-.05.038a.554.554 0 00-.137.132.858.858 0 00-.125.218 20.41 20.41 0 01-1.337 2.812c-.308.516-.591.964-.85 1.343a6.422 6.422 0 01-.65.837c-.175.18-.333.323-.475.431-.141.109-.25.154-.324.138a9.084 9.084 0 01-.213-.05.83.83 0 01-.281-.306 1.37 1.37 0 01-.144-.488 5.39 5.39 0 01-.043-.506 9.93 9.93 0 01.006-.6c.009-.258.012-.433.012-.525 0-.316.007-.66.019-1.03l.031-.881c.009-.217.013-.446.013-.688 0-.241-.015-.43-.044-.568a1.943 1.943 0 00-.13-.4.674.674 0 00-.257-.3 1.443 1.443 0 00-.419-.169c-.441-.1-1.004-.154-1.687-.162-1.55-.017-2.545.083-2.986.3a1.683 1.683 0 00-.475.375c-.15.183-.171.283-.063.3.5.074.854.253 1.062.537l.075.15c.059.108.117.3.175.575a5.8 5.8 0 01.113.912 9.726 9.726 0 010 1.562c-.042.433-.081.77-.119 1.012a2.027 2.027 0 01-.169.587 2.48 2.48 0 01-.15.275.215.215 0 01-.062.062.936.936 0 01-.337.063c-.117 0-.259-.058-.425-.175a2.998 2.998 0 01-.519-.481A6.43 6.43 0 017.06 5.2a15.06 15.06 0 01-.7-1.3l-.2-.362a31.167 31.167 0 01-.512-1.019 19.637 19.637 0 01-.575-1.293.824.824 0 00-.3-.4L4.712.79a.855.855 0 00-.2-.107 1.326 1.326 0 00-.287-.08L.8.625c-.35 0-.587.08-.712.238l-.05.075a.404.404 0 00-.038.2c0 .091.025.204.075.337a41.239 41.239 0 001.63 3.399c.588 1.091 1.098 1.97 1.531 2.636.433.667.875 1.296 1.325 1.887.45.592.748.97.893 1.137a7.6 7.6 0 00.344.375l.312.3c.2.2.494.44.881.718.388.28.817.554 1.287.825.471.27 1.019.492 1.644.662a5.68 5.68 0 001.824.207h1.437c.292-.025.512-.117.662-.275l.05-.063a.83.83 0 00.094-.23c.03-.105.044-.22.044-.344a4.12 4.12 0 01.08-.969c.063-.287.134-.503.213-.65a1.598 1.598 0 01.482-.55.804.804 0 01.1-.043c.2-.066.434-.002.706.194.27.196.524.438.762.725.237.287.522.61.856.968.333.358.625.625.874.8l.25.15c.167.1.384.191.65.275.266.083.5.104.7.062l3.199-.05c.316 0 .562-.052.737-.156.175-.104.279-.219.312-.344a.968.968 0 00.007-.425 1.574 1.574 0 00-.088-.33z"></path>
  </symbol>
  <symbol xmlns="http://www.w3.org/2000/svg" viewBox="0 0 34 21" id="vk-new" fill="none">
    <path d="M31.8409 17.4579C31.8046 17.3796 31.7707 17.3147 31.7393 17.2627C31.2188 16.3252 30.2241 15.1746 28.7559 13.8104L28.7249 13.7792L28.7093 13.7639L28.6936 13.7482H28.6779C28.0115 13.113 27.5895 12.6858 27.4128 12.4672C27.0895 12.0506 27.0171 11.629 27.1938 11.2018C27.3186 10.879 27.7876 10.1973 28.5996 9.15582C29.0267 8.60386 29.3649 8.16149 29.6147 7.8282C31.4164 5.43306 32.1974 3.90253 31.9578 3.23601L31.8648 3.08026C31.8022 2.98649 31.6408 2.9007 31.3808 2.82247C31.1202 2.7444 30.787 2.73149 30.3808 2.78352L25.8825 2.81459C25.8096 2.78877 25.7055 2.79118 25.57 2.82247C25.4346 2.85376 25.3668 2.86946 25.3668 2.86946L25.2885 2.90858L25.2264 2.95558C25.1743 2.98665 25.117 3.0413 25.0545 3.11943C24.9923 3.19728 24.9403 3.28864 24.8987 3.39275C24.4089 4.65275 23.8521 5.82423 23.2272 6.90713C22.8419 7.55286 22.488 8.11247 22.1648 8.5863C21.8421 9.05997 21.5714 9.40896 21.3529 9.63266C21.134 9.85658 20.9365 10.036 20.7592 10.1715C20.5821 10.3071 20.4469 10.3643 20.3533 10.3434C20.2595 10.3224 20.1711 10.3016 20.0875 10.2808C19.9418 10.1871 19.8246 10.0596 19.7362 9.89816C19.6475 9.73677 19.5877 9.53364 19.5565 9.28893C19.5254 9.04405 19.507 8.83342 19.5018 8.65633C19.4969 8.47946 19.4992 8.22927 19.5097 7.90649C19.5206 7.58355 19.5254 7.36504 19.5254 7.25048C19.5254 6.85472 19.5331 6.4252 19.5486 5.96182C19.5644 5.49844 19.5771 5.13128 19.5878 4.86081C19.5984 4.59005 19.6033 4.3036 19.6033 4.00161C19.6033 3.69961 19.585 3.46278 19.5486 3.29089C19.5127 3.11921 19.4576 2.95257 19.385 2.79101C19.312 2.62962 19.2051 2.50478 19.0648 2.41615C18.9243 2.32763 18.7496 2.25738 18.5416 2.20519C17.9896 2.08029 17.2868 2.01273 16.4327 2.00222C14.496 1.98143 13.2515 2.1065 12.6996 2.37725C12.481 2.49165 12.2831 2.64795 12.1062 2.84567C11.9187 3.07484 11.8925 3.19991 12.0279 3.22048C12.6528 3.31408 13.0951 3.538 13.3555 3.89202L13.4493 4.07962C13.5223 4.21497 13.5952 4.45459 13.6681 4.79816C13.7409 5.14173 13.7879 5.5218 13.8086 5.93813C13.8606 6.69842 13.8606 7.34923 13.8086 7.89063C13.7565 8.43224 13.7072 8.85388 13.6602 9.15587C13.6132 9.45787 13.543 9.70258 13.4493 9.88996C13.3555 10.0774 13.2931 10.1919 13.2618 10.2335C13.2305 10.2751 13.2045 10.3013 13.1838 10.3116C13.0485 10.3635 12.9077 10.3899 12.762 10.3899C12.6161 10.3899 12.4392 10.3169 12.231 10.171C12.0228 10.0252 11.8067 9.82485 11.5828 9.56969C11.3589 9.31447 11.1064 8.95783 10.8251 8.4997C10.5441 8.04157 10.2525 7.50012 9.95048 6.87534L9.70063 6.42225C9.54444 6.13076 9.33107 5.70633 9.06032 5.14934C8.7894 4.59213 8.54994 4.05314 8.34177 3.53248C8.25856 3.31381 8.13355 3.14733 7.96696 3.03277L7.88879 2.98577C7.83681 2.9442 7.75338 2.90005 7.63893 2.853C7.52432 2.806 7.40472 2.7723 7.27966 2.75157L2.99986 2.78264C2.56251 2.78264 2.26577 2.88172 2.10953 3.0796L2.04699 3.17321C2.01576 3.22534 2 3.30861 2 3.42323C2 3.53779 2.03124 3.67839 2.09377 3.84487C2.71854 5.31325 3.39797 6.72938 4.13205 8.09349C4.86613 9.45759 5.50404 10.5564 6.04538 11.389C6.58683 12.2221 7.13873 13.0085 7.70108 13.7476C8.26343 14.487 8.63567 14.9608 8.81779 15.169C9.00014 15.3775 9.14337 15.5334 9.24748 15.6375L9.63804 16.0123C9.88795 16.2623 10.2549 16.5617 10.7392 16.9104C11.2235 17.2594 11.7597 17.603 12.348 17.9417C12.9365 18.2799 13.6211 18.5558 14.4021 18.7692C15.1831 18.9829 15.9432 19.0686 16.6826 19.0272H18.4789C18.8432 18.9958 19.1192 18.8812 19.3068 18.6835L19.369 18.6052C19.4108 18.5431 19.4499 18.4465 19.486 18.3166C19.5225 18.1864 19.5407 18.043 19.5407 17.8871C19.53 17.4394 19.5641 17.0359 19.642 16.6767C19.7199 16.3176 19.8086 16.0468 19.9078 15.8645C20.007 15.6823 20.119 15.5286 20.2435 15.4039C20.3684 15.279 20.4573 15.2034 20.5095 15.1773C20.5614 15.1511 20.6028 15.1333 20.634 15.1227C20.884 15.0394 21.1781 15.12 21.5168 15.365C21.8553 15.6097 22.1728 15.9118 22.4697 16.271C22.7665 16.6304 23.1231 17.0337 23.5396 17.4813C23.9563 17.9292 24.3206 18.2621 24.6329 18.4811L24.9452 18.6685C25.1537 18.7936 25.4245 18.9081 25.7578 19.0122C26.0905 19.1163 26.382 19.1423 26.6322 19.0903L30.6307 19.0279C31.0262 19.0279 31.334 18.9625 31.5523 18.8325C31.771 18.7024 31.9009 18.559 31.9428 18.403C31.9846 18.2469 31.9869 18.0697 31.9508 17.8717C31.9137 17.6741 31.8772 17.536 31.8409 17.4579Z" stroke="#B35BD2" stroke-width="1.3" />
  </symbol>
  <symbol xmlns="http://www.w3.org/2000/svg" viewBox="0 0 26 26" id="insta-new" fill="none">
    <path d="M18.0448 1.35H7.95519C4.31246 1.35 1.35 4.31246 1.35 7.95519V18.0449C1.35 21.6875 4.31247 24.65 7.95519 24.65H18.0449C21.6875 24.65 24.65 21.6875 24.65 18.0449V7.95519C24.65 4.31246 21.6875 1.35 18.0448 1.35ZM13 18.3654C10.042 18.3654 7.63453 15.958 7.63453 13C7.63453 10.042 10.042 7.63453 13 7.63453C15.958 7.63453 18.3654 10.042 18.3654 13C18.3654 15.958 15.958 18.3654 13 18.3654Z" stroke="#B35BD2" stroke-width="1.3"/>
    <circle cx="20" cy="7" r="1.5" stroke="#B35BD2"/>
  </symbol>
  <symbol xmlns="http://www.w3.org/2000/svg" viewBox="0 0 25 25" id="heart2">
    <path d="M12.5 23.61c-.356 0-.7-.13-.966-.364a290.165 290.165 0 00-2.843-2.445l-.005-.004c-2.518-2.146-4.693-4-6.206-5.826C.788 12.931 0 10.995 0 8.881c0-2.055.704-3.95 1.983-5.337 1.294-1.404 3.07-2.177 5-2.177 1.444 0 2.766.456 3.929 1.356A8.036 8.036 0 0112.5 4.381a8.039 8.039 0 011.588-1.658c1.164-.9 2.485-1.356 3.928-1.356 1.93 0 3.707.773 5 2.177C24.297 4.93 25 6.826 25 8.88c0 2.115-.788 4.05-2.48 6.091-1.513 1.826-3.687 3.68-6.206 5.826-.86.733-1.835 1.564-2.848 2.45-.267.233-.61.362-.966.362zM6.984 2.831c-1.517 0-2.91.605-3.924 1.704-1.03 1.116-1.596 2.66-1.596 4.344 0 1.779.661 3.369 2.143 5.157 1.432 1.728 3.563 3.544 6.03 5.646l.004.003c.862.735 1.84 1.569 2.857 2.458a341.79 341.79 0 012.866-2.462c2.467-2.102 4.597-3.917 6.03-5.645 1.48-1.788 2.142-3.378 2.142-5.157 0-1.685-.567-3.228-1.596-4.344a5.274 5.274 0 00-3.924-1.704c-1.111 0-2.131.353-3.032 1.05-.803.62-1.362 1.406-1.69 1.955a.917.917 0 01-.794.451.917.917 0 01-.794-.451c-.328-.55-.887-1.335-1.69-1.956-.9-.696-1.921-1.05-3.032-1.05z"></path>
  </symbol>
  <symbol xmlns="http://www.w3.org/2000/svg" viewBox="0 0 12 12" id="search">
    <path d="M11.84 11.069l-3.719-3.72c.608-.772.97-1.746.97-2.803A4.55 4.55 0 004.546 0 4.55 4.55 0 000 4.546 4.55 4.55 0 004.546 9.09a4.523 4.523 0 002.804-.97l3.719 3.72a.543.543 0 00.771 0 .545.545 0 000-.772zM1.09 4.546A3.459 3.459 0 014.547 1.09 3.459 3.459 0 018 4.546 3.459 3.459 0 014.546 8 3.459 3.459 0 011.09 4.546z"></path>
  </symbol>
  <symbol xmlns="http://www.w3.org/2000/svg" viewBox="0 0 25 25" id="search-header">
    <path d="M18.0236 15.9014L17.821 16.1781L18.0635 16.4206L23.6124 21.9695C24.0663 22.4234 24.0663 23.1594 23.6124 23.6133C23.1585 24.0672 22.4226 24.0672 21.9687 23.6133L16.4198 18.0644L16.1773 17.8219L15.9007 18.0245C14.2856 19.2072 12.3038 19.9134 10.1562 19.9134C4.77719 19.9134 0.4 15.5362 0.4 10.1572C0.4 4.77817 4.77714 0.400977 10.1562 0.400977C15.5352 0.400977 19.9124 4.77817 19.9124 10.1572C19.9124 12.3048 19.2063 14.2864 18.0236 15.9014ZM2.72501 10.1572C2.72501 14.2554 6.05806 17.5884 10.1562 17.5884C14.2543 17.5884 17.5874 14.2554 17.5874 10.1572C17.5874 6.05904 14.2544 2.72599 10.1562 2.72599C6.05806 2.72599 2.72501 6.05904 2.72501 10.1572Z" stroke="#fff" stroke-width="1"></path>
  </symbol>
  <symbol xmlns="http://www.w3.org/2000/svg" viewBox="0 0 25 25" id="user">
    <path d="M21.339 16.161a12.452 12.452 0 00-4.75-2.98 7.224 7.224 0 003.138-5.954C19.727 3.242 16.485 0 12.5 0 8.515 0 5.273 3.242 5.273 7.227a7.224 7.224 0 003.138 5.955 12.452 12.452 0 00-4.75 2.98A12.418 12.418 0 000 25h1.953c0-5.816 4.731-10.547 10.547-10.547 5.816 0 10.547 4.731 10.547 10.547H25c0-3.339-1.3-6.478-3.661-8.839zM12.5 12.5a5.28 5.28 0 01-5.273-5.273A5.28 5.28 0 0112.5 1.953a5.28 5.28 0 015.273 5.274A5.28 5.28 0 0112.5 12.5z" stroke="#fff" stroke-width=".3"></path>
  </symbol>
  <symbol xmlns="http://www.w3.org/2000/svg" viewBox="0 0 11 6" id="select-arrow" width="11" height="6">
    <path d="M0.294771 0.27121C0.564336 0.04293 1.0072 0.04293 1.27676 0.27121L5.43574 3.79321C5.47304 3.8248 5.5277 3.8248 5.56499 3.79321L9.72397 0.27121C9.99354 0.0429299 10.4364 0.0429299 10.706 0.27121C10.9657 0.49113 10.9657 0.839712 10.706 1.05963L5.99136 5.05216C5.7218 5.28044 5.27894 5.28044 5.00937 5.05216L0.294771 1.05963C0.0350765 0.839712 0.0350765 0.49113 0.294771 0.27121Z" fill="#777777" stroke="white" stroke-width="0.2" stroke-linecap="round" stroke-linejoin="round"/>
  </symbol>
  <symbol xmlns="http://www.w3.org/2000/svg" viewBox="0 0 1000 1000" id="done">
    <path d="M979.5,198.1c-14-14-36.1-14-50.2,0L399.7,727.7l-329-331c-14-14-36.1-14-50.2,0s-14,36.1,0,50.2l351.1,351.1c2,2,2,4,4,4c14,14,36.1,14,50.2,0l553.7-553.7C993.5,234.2,993.5,212.1,979.5,198.1z"/>
  </symbol>
  <symbol xmlns="http://www.w3.org/2000/svg" viewBox="0 0 41 44" id="photo-add">
    <path d="M40.556 6.852H35.72V11.952H33.812V6.852H29V5.076H33.812V0H35.72V5.076H40.556V6.852Z" fill="#B35BD2"/>
    <path fill-rule="evenodd" clip-rule="evenodd" d="M15.6503 12.1103C13.3318 12.5445 11.5269 14.2974 10.9934 16.6332L10.8581 17.226L7.23364 17.2494C3.65591 17.2725 3.60279 17.2752 3.11383 17.4528C1.92184 17.886 1.01357 18.7006 0.480947 19.8143C0.289508 20.2145 0.11415 20.7194 0.0661382 21.0084C0.00837136 21.356 -0.0102238 24.3561 0.00517056 30.8289L0.0273475 40.1488L0.231513 40.7138C0.786242 42.2486 1.91689 43.3508 3.41867 43.8211L3.99024 44H19.4989H35.0075L35.5791 43.8211C37.0809 43.3508 38.2115 42.2486 38.7662 40.7138L38.9704 40.1488L38.9912 30.7748C39.0141 20.4676 39.028 20.8119 38.5513 19.8407C38.0678 18.8556 37.3286 18.115 36.3721 17.6577C35.5542 17.2666 35.2145 17.2369 31.5394 17.2355L28.1474 17.2342L27.9752 16.5611C27.3483 14.1102 25.515 12.4153 23.1277 12.0797C22.2597 11.9577 16.3359 11.982 15.6503 12.1103ZM23.2548 14.1204C24.1951 14.3667 24.9574 14.9081 25.4975 15.7135C25.8554 16.2473 26.0362 16.7442 26.2888 17.8889C26.4332 18.5434 26.496 18.6951 26.7069 18.8984C26.8557 19.0419 27.0718 19.1571 27.2469 19.1863C27.4076 19.2132 29.2096 19.2355 31.2513 19.236C34.8459 19.2368 34.9777 19.242 35.4047 19.4004C36.0001 19.6213 36.637 20.2685 36.865 20.8843L37.0289 21.3271L37.0089 30.6224L36.989 39.9177L36.7695 40.3979C36.5042 40.9786 35.9774 41.5019 35.3671 41.791L34.9313 41.9974H19.4989H4.06645L3.60081 41.7799C3.11254 41.5518 2.56284 41.0407 2.30235 40.5724C1.96002 39.9572 1.96421 40.093 1.98708 30.3668L2.0088 21.1239L2.20793 20.7003C2.44761 20.1903 2.86524 19.7556 3.38057 19.4794L3.76161 19.2753L7.83882 19.2368L11.916 19.1983L12.169 19.0159C12.469 18.7997 12.4981 18.7295 12.7924 17.516C12.9173 17.0009 13.127 16.3586 13.2583 16.0886C13.696 15.189 14.6107 14.4448 15.6503 14.143C16.3101 13.9513 22.5387 13.9329 23.2548 14.1204ZM6.04035 22.2334C5.59019 22.4401 5.37345 22.7863 5.33892 23.3543C5.31515 23.7447 5.33923 23.862 5.48867 24.0822C5.75457 24.474 6.03022 24.6457 6.4605 24.6875C6.94054 24.7341 7.22717 24.6191 7.56058 24.2461C8.13833 23.5997 7.91991 22.5995 7.12085 22.2327C6.72731 22.0521 6.43504 22.0523 6.04035 22.2334ZM18.1403 22.518C14.491 23.1365 11.6236 26.2912 11.3565 29.9816C11.19 32.2831 11.8333 34.2943 13.3031 36.0665C14.2842 37.2494 15.9139 38.2768 17.4793 38.6992C18.159 38.8827 18.3773 38.9049 19.4989 38.9049C20.6138 38.9049 20.8402 38.8821 21.496 38.7041C24.4356 37.9063 26.6882 35.6243 27.4315 32.6911C27.7396 31.4752 27.74 29.8682 27.4326 28.6604C26.3697 24.4844 22.3225 21.8092 18.1403 22.518ZM21.1374 24.5891C22.8488 25.064 24.336 26.3388 25.1193 28.0024C25.9585 29.7844 25.9409 31.6818 25.069 33.4477C24.2826 35.0407 23.0767 36.0976 21.366 36.6933C20.7967 36.8915 20.673 36.9056 19.4989 36.9056C18.3247 36.9056 18.201 36.8915 17.6317 36.6933C15.9211 36.0976 14.7152 35.0407 13.9287 33.4477C13.0569 31.6818 13.0393 29.7844 13.8784 28.0024C14.7304 26.1929 16.2703 24.9504 18.2033 24.5123C18.8436 24.3672 20.4933 24.4104 21.1374 24.5891Z" fill="#B35BD2"/>
  </symbol>
</svg>
