<?xml version="1.0" encoding="UTF-8"?>
<svg xmlns="http://www.w3.org/2000/svg" xmlns:xlink="http://www.w3.org/1999/xlink" width="30px" height="30px" viewBox="0 0 30 30" version="1.1">
<g id="surface1">
<path style=" stroke:none;fill-rule:nonzero;fill:rgb(0%,0%,0%);fill-opacity:1;" d="M 22.78125 14.585938 L 11.78125 7.085938 C 11.628906 6.984375 11.429688 6.972656 11.265625 7.058594 C 11.101562 7.144531 11 7.316406 11 7.5 L 11 22.5 C 11 22.683594 11.101562 22.855469 11.265625 22.941406 C 11.339844 22.980469 11.421875 23 11.5 23 C 11.597656 23 11.695312 22.96875 11.78125 22.914062 L 22.78125 15.414062 C 22.917969 15.320312 23 15.164062 23 15 C 23 14.835938 22.917969 14.679688 22.78125 14.585938 Z M 12 21.554688 L 12 8.445312 L 21.613281 15 Z M 12 21.554688 "/>
<path style=" stroke:none;fill-rule:nonzero;fill:rgb(0%,0%,0%);fill-opacity:1;" d="M 15 0 C 6.730469 0 0 6.730469 0 15 C 0 23.269531 6.730469 30 15 30 C 23.269531 30 30 23.269531 30 15 C 30 6.730469 23.269531 0 15 0 Z M 15 29 C 7.28125 29 1 22.71875 1 15 C 1 7.28125 7.28125 1 15 1 C 22.71875 1 29 7.28125 29 15 C 29 22.71875 22.71875 29 15 29 Z M 15 29 "/>
</g>
</svg>
