<svg width="34" height="43" viewBox="0 0 34 43" fill="none" xmlns="http://www.w3.org/2000/svg">
<path d="M16.1914 32.5166L19.0485 33.3333V9.5238H17.62H16.1914V32.5166Z" fill="#777777"/>
<path d="M22.5007 0C21.396 0.00132321 20.337 0.440735 19.5558 1.22185C18.7747 2.00297 18.3353 3.062 18.334 4.16667V8.33333H22.5007C23.6057 8.33333 24.6655 7.89435 25.4469 7.11295C26.2283 6.33154 26.6673 5.27174 26.6673 4.16667C26.6673 3.0616 26.2283 2.00179 25.4469 1.22039C24.6655 0.438987 23.6057 0 22.5007 0Z" fill="#777777"/>
<path d="M1.66602 10H14.166V16.6667H1.66602V10Z" fill="#777777"/>
<path d="M30.475 30.0057V18.0953H20.9512V33.5936C21.2425 33.785 21.4945 34.0191 21.6964 34.2858L29.4353 30.3342C29.7577 30.1721 30.1095 30.0609 30.475 30.0057Z" fill="#777777"/>
<path d="M20.834 10H33.334V16.6667H20.834V10Z" fill="#777777"/>
<path d="M4.02685 30.7542C5.03392 30.5446 5.66311 30.2523 6.66574 30.4763L14.2848 32.381V18.0953H3.80859V30.7993L4.02685 30.7542Z" fill="#777777"/>
<path d="M0 41.6278L1.81667 42.5362C2.39583 42.8246 3.03384 42.9752 3.68083 42.9762H16.1608C16.8922 42.9761 17.6108 42.7836 18.2442 42.4178L32.2442 34.3345C32.625 34.111 32.9021 33.746 33.0151 33.3191C33.1281 32.8923 33.0678 32.438 32.8475 32.0553C32.6211 31.6798 32.258 31.4065 31.8345 31.2928C31.411 31.1791 30.9599 31.2337 30.5758 31.4453L22.18 36.2945C22.2187 36.752 22.1621 37.2126 22.0137 37.6472C21.8653 38.0817 21.6283 38.4807 21.3177 38.8189C21.0071 39.1571 20.6298 39.4272 20.2094 39.612C19.7891 39.7969 19.335 39.8925 18.8758 39.8928C18.5826 39.8925 18.2907 39.8538 18.0075 39.7778L8.07 37.1145C7.85742 37.0565 7.67644 36.9168 7.56665 36.7257C7.45686 36.5347 7.42721 36.3079 7.48416 36.0951C7.54112 35.8822 7.68006 35.7006 7.87059 35.5899C8.06111 35.4792 8.28772 35.4485 8.50083 35.5045L18.4383 38.1712C18.6509 38.2318 18.8735 38.2495 19.093 38.2233C19.3125 38.197 19.5246 38.1274 19.7169 38.0184C19.9093 37.9094 20.078 37.7632 20.2133 37.5884C20.3486 37.4136 20.4478 37.2136 20.505 37.0001C20.5623 36.7866 20.5765 36.5638 20.5468 36.3447C20.5172 36.1256 20.4442 35.9146 20.3322 35.724C20.2202 35.5334 20.0715 35.367 19.8945 35.2345C19.7176 35.1019 19.5161 35.0059 19.3017 34.952L6.86833 31.6187C6.18469 31.4358 5.46578 31.4298 4.77917 31.6012L0 32.7937V41.6278Z" fill="#777777"/>
<path d="M16.6654 8.33334V4.16667C16.6654 3.34258 16.421 2.537 15.9632 1.85179C15.5053 1.16659 14.8546 0.632536 14.0932 0.317171C13.3319 0.00180535 12.4941 -0.0807086 11.6858 0.0800632C10.8776 0.240835 10.1351 0.637672 9.55242 1.22039C8.9697 1.80311 8.57287 2.54554 8.41209 3.35379C8.25132 4.16205 8.33384 4.99983 8.6492 5.76118C8.96457 6.52254 9.49862 7.17329 10.1838 7.63113C10.869 8.08897 11.6746 8.33334 12.4987 8.33334H16.6654Z" fill="#777777"/>
</svg>
